HIERARCHY
ROOT pelvis
{
  OFFSET 0 100 0
  CHANNELS 6 Xposition Yposition Zposition Zrotation Xrotation Yrotation
  JOINT pelvis_right_femur
  {
    OFFSET -10.78128 -3.44521 -0.5502486
    CHANNELS 3 Zrotation Xrotation Yrotation
    JOINT right_femur_tibia
    {
      OFFSET -0.8047443 -44.0398 -0.1307829
      CHANNELS 3 Zrotation Xrotation Yrotation
      JOINT right_tibia_foot
      {
        OFFSET 3.006224 -47.83518 -5
        CHANNELS 3 Zrotation Xrotation Yrotation
        End Site
        {
          OFFSET 0 -5 15
        }
      }
    }
  }
  JOINT pelvis_left_femur
  {
    OFFSET 10.78128 -3.44521 -0.5502486
    CHANNELS 3 Zrotation Xrotation Yrotation
    JOINT left_femur_tibia
    {
      OFFSET 0.8047443 -44.0398 -0.1307829
      CHANNELS 3 Zrotation Xrotation Yrotation
      JOINT left_tibia_foot
      {
        OFFSET -4.370144 -48.10324 -4.275266
        CHANNELS 3 Zrotation Xrotation Yrotation
        End Site
        {
          OFFSET 0 -5 15
        }
      }
    }
  }
  JOINT pelvis_spine1
  {
    OFFSET 0 6.468898 -3.129235
    CHANNELS 3 Zrotation Xrotation Yrotation
    JOINT spine1
    {
      OFFSET 0 23.15396 4.99043
      CHANNELS 3 Zrotation Xrotation Yrotation
      JOINT spine2
      {
        OFFSET 0 20.79997 -5.064912
        CHANNELS 3 Zrotation Xrotation Yrotation
        JOINT neck
        {
          OFFSET 0 14.38658 9.616178
          CHANNELS 3 Zrotation Xrotation Yrotation
          End Site
          {
            OFFSET 0 20 0
          }
        }
      }
      JOINT right_manubrium
      {
        OFFSET -5.722621 16.35077 3.967754
        CHANNELS 3 Zrotation Xrotation Yrotation
        JOINT right_clavicle
        {
          OFFSET -13.16364 1.694482 -4.693211
          CHANNELS 3 Zrotation Xrotation Yrotation
          JOINT right_humerus
          {
            OFFSET -28.5034 -0.3100689 -2.792744
            CHANNELS 3 Zrotation Xrotation Yrotation
            JOINT right_radius
            {
              OFFSET -25.15693 0.02248979 -1.271978
              CHANNELS 3 Zrotation Xrotation Yrotation
              End Site
              {
                OFFSET -15 0 0
              }
            }
          }
        }
      }
      JOINT left_manubrium
      {
        OFFSET 5.722621 16.35077 3.967754
        CHANNELS 3 Zrotation Xrotation Yrotation
        JOINT left_clavicle
        {
          OFFSET 13.16364 1.694482 -4.693211
          CHANNELS 3 Zrotation Xrotation Yrotation
          JOINT left_humerus
          {
            OFFSET 29.39168 -1.063119 -2.237045
            CHANNELS 3 Zrotation Xrotation Yrotation
            JOINT left_radius
            {
              OFFSET 24.59957 -0.9528479 0.9047498
              CHANNELS 3 Zrotation Xrotation Yrotation
              End Site
              {
                OFFSET 15 -0 -0
              }
            }
          }
        }
      }
    }
  }
}
MOTION
Frames: 13
Frame Time: 0.0416666666667
36.95367 100.3931 255.5467 1.939495 -8.145259 -3.692223 -1.407104 25.40909 8.661551 -0 20.83842 -0 7.999078 -13.69237 0.8228471 -0.6176697 -26.49565 -6.085834 -0 24.68657 -0 -7.737015 -5.355908 18.98446 -0.9876277 -1.088995 10.10416 -2.363995 9.54149 -1.605373 2.64526 21.76033 4.848742 1.475787 -14.71782 7.410164 0.8576749 -22.22942 10.97241 79.8763 20.97055 -3.82219 -0 0 28.96412 -26.63015 13.77059 14.11413 4.333548 -12.60069 -2.806212 -94.83072 22.36576 28.06167 0 0 -7.755407 -3.771546 5.734712 18.00082
37.96554 100.3002 263.159 2.292022 -8.161831 -4.032817 -2.689414 25.23454 8.274612 -0 27.55266 -0 8.543447 -10.99985 0.1740252 -2.245854 -23.67738 -7.315417 -0 25.43894 -0 -7.735295 -5.422441 18.4775 -1.570074 -1.917754 10.05672 -2.397561 9.25936 -1.590441 2.820957 21.90223 4.810881 1.378001 -14.62688 7.678067 1.022998 -21.34691 10.53503 80.55855 20.93156 -4.572011 -0 0 27.732 -26.39799 13.69701 13.81367 4.168849 -12.00286 -2.792851 -94.50787 22.68854 27.75926 0 0 -7.167121 -3.863592 5.789477 18.27023
38.89466 100.8921 270.6573 2.679039 -8.504289 -3.811784 -3.617744 23.45363 7.514823 -0 35.60679 -0 8.702676 -8.445763 -1.06041 -3.899567 -19.74662 -8.316744 -0 26.43025 -0 -7.567294 -6.127782 17.95471 -2.180869 -2.336116 9.682528 -2.362862 9.140448 -1.662911 2.910509 22.19246 4.806825 1.232958 -14.47091 7.931433 1.465593 -20.18106 10.25133 81.58232 21.16092 -5.934007 -0 0 25.5189 -25.9186 13.73395 13.23334 4.014427 -11.94025 -2.865314 -93.59802 23.12824 26.47244 0 0 -7.34004 -3.731621 5.965958 18.20823
39.73682 102.0372 277.7479 2.960813 -9.123504 -3.013821 -3.808287 19.56146 6.464673 -0 44.19901 -0 8.454909 -6.80767 -2.74001 -5.29305 -14.61261 -9.032729 -0 26.86522 -0 -7.221066 -7.496634 17.37784 -2.606737 -2.172888 8.840546 -2.283755 9.142006 -1.905326 2.847907 22.61184 4.883539 1.00169 -14.23912 8.175936 2.076685 -18.96855 10.13421 82.85519 21.62021 -7.636811 -0 0 22.7584 -25.21673 13.85461 12.48955 3.83246 -12.41786 -3.047673 -92.10843 23.64575 24.20531 0 0 -8.197698 -3.357677 6.258148 17.82421
40.45705 103.571 284.3241 2.985371 -9.921201 -2.060569 -3.336753 13.61997 5.282627 -0 51.11128 -0 7.848371 -6.439067 -4.404861 -6.108213 -8.745065 -9.479348 -0 26.20117 -0 -6.881308 -9.035548 16.77462 -2.754335 -1.525814 7.606705 -2.114914 9.18422 -2.334352 2.647562 23.12318 5.055228 0.6970455 -13.91496 8.434495 2.666043 -17.86308 10.13154 84.28133 22.21642 -9.458704 -0 0 19.95471 -24.36265 14.01413 11.72765 3.682708 -13.27055 -3.347295 -90.20622 24.15395 21.12621 0 0 -9.613711 -2.771482 6.646569 17.17771
41.07521 105.2773 290.3405 2.793546 -10.49703 -1.096415 -2.539371 6.472729 4.224245 -0 54.27428 -0 6.973084 -6.830376 -5.630193 -6.378104 -2.751985 -9.778586 -0 24.44197 -0 -6.699314 -10.37135 16.11545 -2.68572 -0.774227 6.123672 -1.838628 9.146937 -3.000655 2.451799 23.66561 5.2545 0.3977636 -13.51943 8.732869 2.957455 -16.8262 10.05862 85.85246 22.80987 -11.34422 -0 0 17.52501 -23.44064 14.13499 11.05497 3.681194 -14.30579 -3.713429 -88.1181 24.56834 17.48174 0 0 -11.52381 -2.032531 7.114847 16.31226
41.62713 106.7514 295.914 2.590672 -10.52357 -0.04309481 -1.817112 -0.6179118 3.411171 -0 53.04602 -0 6.006287 -7.04905 -6.461205 -6.312295 2.733551 -10.08156 -0 21.87402 -0 -6.663045 -11.55105 15.32753 -2.590173 -0.2725871 4.622011 -1.489077 8.921805 -3.908373 2.378635 24.11225 5.401628 0.1704933 -13.11725 9.054748 2.778263 -15.74847 9.743836 87.49934 23.27644 -13.31342 -0 0 15.60784 -22.52712 14.15027 10.49726 3.93815 -15.38294 -4.056309 -86.00562 24.84766 13.52377 0 0 -13.89865 -1.200229 7.653671 15.23092
42.07425 107.6271 301.215 2.473948 -10.06972 1.10612 -1.558614 -7.111959 2.850396 -0 47.70889 -0 4.986964 -6.994773 -7.056402 -6.067992 7.5618 -10.39981 -0 19.05825 -0 -6.683744 -12.80009 14.41685 -2.616767 -0.009994534 3.305241 -1.081474 8.502534 -4.957734 2.474716 24.41197 5.413683 0.05076202 -12.74856 9.32021 2.204424 -14.66671 9.207977 88.97909 23.57934 -15.28811 -0 0 14.05607 -21.67688 14.04403 9.99708 4.449506 -16.48908 -4.326577 -83.93064 24.99836 9.440616 0 0 -16.64912 -0.3114949 8.252705 13.93875
42.42979 107.7728 306.6721 2.551721 -9.381708 2.344935 -1.773409 -12.78296 2.513652 -0 39.35458 -0 3.84488 -6.965092 -7.566603 -5.868195 11.83937 -10.64593 -0 16.7139 -0 -6.699988 -14.2321 13.48116 -2.862765 0.05364925 2.252 -0.6764263 7.970887 -5.993988 2.726155 24.54502 5.256225 0.04003411 -12.50308 9.470566 1.411491 -13.55417 8.594744 90.17915 23.74902 -17.2307 -0 0 12.61247 -20.89012 13.84152 9.465452 5.144458 -17.56852 -4.495129 -81.9849 25.03558 5.469285 0 0 -19.6019 0.6219102 8.904147 12.48606
42.69904 107.192 312.3026 2.792494 -8.590082 3.357112 -2.363063 -17.35464 2.157224 -0 29.67528 -0 2.579145 -7.283769 -8.109505 -5.82938 15.56765 -10.74339 -0 15.2761 -0 -6.711595 -15.80631 12.60331 -3.24845 0.02860562 1.575714 -0.3133018 7.441609 -6.756459 3.032685 24.53226 4.981788 0.09162942 -12.42433 9.487988 0.6668764 -12.3763 8.109882 91.16381 23.84684 -19.10189 -0 0 11.0104 -20.07736 13.58861 8.791841 5.900363 -18.63776 -4.513209 -80.26354 24.9683 1.789512 0 0 -22.55576 1.597362 9.584355 10.95307
42.84471 106.0829 317.9948 3.063613 -7.964996 3.978251 -2.876034 -21.00589 1.592685 -0 20.59132 -0 1.210684 -8.053098 -8.664808 -5.903341 18.79921 -10.66959 -0 15.05124 -0 -6.77076 -17.30235 11.86869 -3.59434 0.0749111 1.287579 0.0002669187 6.990958 -7.10534 3.294539 24.47398 4.685633 0.1574805 -12.48231 9.411127 0.1929701 -11.27461 7.8911 91.93322 23.94649 -20.75038 -0 0 9.139543 -19.15983 13.32691 7.923695 6.537034 -19.70203 -4.398526 -78.82265 24.82031 -1.422162 0 0 -25.1943 2.581888 10.25102 9.447436
42.8438 104.7559 323.8577 3.162582 -7.471758 4.134148 -2.787037 -23.39578 0.9964035 -0 13.71535 -0 -0.1877594 -9.10788 -9.223819 -5.916624 21.42912 -10.51571 -0 16.16347 -0 -6.959948 -18.34791 11.34988 -3.736082 0.1689327 1.194609 0.2737062 6.637192 -7.142125 3.476325 24.44715 4.407869 0.2161379 -12.63364 9.268181 0.02222459 -10.37635 7.910718 92.50066 24.0863 -22.02141 -0 0 7.17105 -18.13653 13.08111 6.938916 6.966114 -20.64288 -4.184107 -77.76545 24.64991 -3.890965 0 0 -27.19195 3.507202 10.86817 8.092769
42.66619 103.4991 330.0681 2.985516 -7.188925 4.168722 -1.974299 -24.39033 0.8317548 -0 10.49538 -0 -1.464543 -9.801454 -9.775819 -5.549331 23.45396 -10.4692 -0 18.7869 -0 -7.357344 -18.52304 11.07635 -3.578197 0.1203123 1.095238 0.4935089 6.353483 -7.017193 3.63359 24.43963 4.146167 0.2881875 -12.88797 9.106248 0.0367777 -9.636687 8.08828 92.96286 24.24293 -22.85269 -0 0 5.395898 -17.04936 12.8524 5.966855 7.135803 -21.208 -3.96279 -77.24868 24.56435 -5.366891 0 0 -28.23919 4.28342 11.41868 7.017358
